<svg width="46" height="41" viewBox="0 0 46 41" fill="none" xmlns="http://www.w3.org/2000/svg">
<path d="M5.01952 0L6.35359 2.01869C10.7303 8.6296 14.4438 15.6674 16.8192 22.9366C14.15 22.357 10.7594 23.3336 9.64924 25.694C5.5647 22.6917 -0.986833 24.7343 0.1252 28.7096C1.25389 32.7441 11.5157 34.1741 13.1143 36.2433C13.283 33.6979 21.3804 29.9406 20.2059 25.7302C20.1632 25.5795 20.1095 25.4303 20.0449 25.2832C18.4248 19.4736 15.9306 13.8109 12.8957 8.38053L36.2102 15.8058L41.8851 27.5907C39.3317 27.2695 36.3534 28.2703 35.3264 30.4535C31.2418 27.4515 24.6902 29.4939 25.8023 33.4692C26.9309 37.5036 37.1927 38.931 38.7914 41C38.9596 38.4602 47.0223 34.7136 45.8913 30.5147L45.8873 30.5091C45.8852 30.5018 45.8851 30.4943 45.8829 30.4869C45.7676 30.073 45.5849 29.7043 45.3461 29.3791L35.9748 9.92169L35.8096 9.57745L35.318 9.42461L8.00128 0.927507L5.01952 0ZM9.89718 3.34606L33.7902 10.7796L35.1656 13.637L11.6073 6.13107C11.0522 5.19503 10.4806 4.26681 9.89718 3.34606Z" fill="white"/>
</svg>
