<svg width="53" height="49" viewBox="0 0 53 49" fill="none" xmlns="http://www.w3.org/2000/svg">
<path d="M5.97516 0.952881L7.49801 3.27163C12.4941 10.8652 16.733 18.9491 19.4445 27.2988C16.3976 26.6331 12.5273 27.7548 11.26 30.4661C6.59749 27.0176 -0.881113 29.3638 0.388277 33.93C1.67668 38.5641 13.3906 40.2068 15.2154 42.5835C15.4079 39.6597 24.6512 35.3439 23.3105 30.5077C23.2618 30.3346 23.2004 30.1632 23.1267 29.9943C21.2774 23.3211 18.4302 16.8166 14.9659 10.5791L41.5795 19.1081L48.0574 32.6447C45.1427 32.2758 41.7429 33.4253 40.5706 35.9331C35.908 32.4848 28.4294 34.8308 29.6988 39.3971C30.9872 44.0311 42.701 45.6707 44.5259 48.0472C44.718 45.1298 53.9216 40.8264 52.6305 36.0033L52.6259 35.9969C52.6235 35.9885 52.6234 35.98 52.621 35.9714C52.4892 35.496 52.2808 35.0725 52.0081 34.6989L41.3108 12.3494L41.1222 11.9539L40.561 11.7784L9.37886 2.01825L5.97501 0.952881H5.97516ZM11.543 4.79631L38.817 13.3348L40.387 16.6169L13.4951 7.99529C12.8615 6.92011 12.2088 5.85393 11.5429 4.79631H11.543Z" fill="white"/>
</svg>
